<svg width="292" height="155" viewBox="0 0 292 155" fill="none" xmlns="http://www.w3.org/2000/svg">
<g filter="url(#filter0_d_3009_1322)">
<path d="M78.8168 67.8643L75.6631 51.6145L90.143 59.6353L83.0104 61.7272L78.8168 67.8643Z" fill="black"/>
<path d="M78.8168 67.8643L75.6631 51.6145L90.143 59.6353L83.0104 61.7272L78.8168 67.8643Z" stroke="white"/>
</g>
<g filter="url(#filter1_d_3009_1322)">
<path d="M88 69.5C88 68.3954 88.8954 67.5 90 67.5H202C213.046 67.5 222 76.4543 222 87.5C222 98.5457 213.046 107.5 202 107.5H112C98.7452 107.5 88 96.7548 88 83.5V69.5Z" fill="#6A7796" shape-rendering="crispEdges"/>
<path d="M90 68.5H202C212.493 68.5 221 77.0066 221 87.5C221 97.9934 212.493 106.5 202 106.5H112C99.2975 106.5 89 96.2025 89 83.5V69.5C89 68.9477 89.4477 68.5 90 68.5Z" stroke="#555F78" stroke-width="2" shape-rendering="crispEdges"/>
<path d="M107.682 93.6932C107.129 93.6932 106.629 93.5909 106.182 93.3864C105.735 93.178 105.381 92.8769 105.119 92.483C104.862 92.089 104.733 91.6061 104.733 91.0341C104.733 90.5417 104.828 90.1364 105.017 89.8182C105.206 89.5 105.462 89.2481 105.784 89.0625C106.106 88.8769 106.466 88.7367 106.864 88.642C107.261 88.5473 107.667 88.4754 108.08 88.4261C108.602 88.3655 109.027 88.3163 109.352 88.2784C109.678 88.2367 109.915 88.1705 110.062 88.0795C110.21 87.9886 110.284 87.8409 110.284 87.6364V87.5966C110.284 87.1004 110.144 86.7159 109.864 86.4432C109.587 86.1705 109.174 86.0341 108.625 86.0341C108.053 86.0341 107.602 86.161 107.273 86.4148C106.947 86.6648 106.722 86.9432 106.597 87.25L105 86.8864C105.189 86.3561 105.466 85.928 105.83 85.6023C106.197 85.2727 106.619 85.0341 107.097 84.8864C107.574 84.7348 108.076 84.6591 108.602 84.6591C108.951 84.6591 109.32 84.7008 109.71 84.7841C110.104 84.8636 110.472 85.0114 110.812 85.2273C111.157 85.4432 111.439 85.7519 111.659 86.1534C111.879 86.5511 111.989 87.0682 111.989 87.7045V93.5H110.33V92.3068H110.261C110.152 92.5265 109.987 92.7424 109.767 92.9545C109.547 93.1667 109.265 93.3428 108.92 93.483C108.576 93.6231 108.163 93.6932 107.682 93.6932ZM108.051 92.3295C108.521 92.3295 108.922 92.2367 109.256 92.0511C109.593 91.8655 109.848 91.6231 110.023 91.3239C110.201 91.0208 110.29 90.697 110.29 90.3523V89.2273C110.229 89.2879 110.112 89.3447 109.938 89.3977C109.767 89.447 109.572 89.4905 109.352 89.5284C109.133 89.5625 108.919 89.5947 108.71 89.625C108.502 89.6515 108.328 89.6742 108.188 89.6932C107.858 89.7348 107.557 89.8049 107.284 89.9034C107.015 90.0019 106.799 90.1439 106.636 90.3295C106.477 90.5114 106.398 90.7538 106.398 91.0568C106.398 91.4773 106.553 91.7955 106.864 92.0114C107.174 92.2235 107.57 92.3295 108.051 92.3295ZM114.251 96.7727V84.7727H115.911V86.1875H116.053C116.151 86.0057 116.293 85.7955 116.479 85.5568C116.664 85.3182 116.922 85.1098 117.251 84.9318C117.581 84.75 118.017 84.6591 118.558 84.6591C119.263 84.6591 119.892 84.8371 120.445 85.1932C120.998 85.5492 121.431 86.0625 121.746 86.733C122.064 87.4034 122.223 88.2102 122.223 89.1534C122.223 90.0966 122.066 90.9053 121.751 91.5795C121.437 92.25 121.005 92.767 120.456 93.1307C119.907 93.4905 119.28 93.6705 118.575 93.6705C118.045 93.6705 117.611 93.5814 117.274 93.4034C116.941 93.2254 116.679 93.017 116.49 92.7784C116.301 92.5398 116.155 92.3277 116.053 92.142H115.95V96.7727H114.251ZM115.916 89.1364C115.916 89.75 116.005 90.2879 116.183 90.75C116.361 91.2121 116.619 91.5739 116.956 91.8352C117.293 92.0928 117.706 92.2216 118.195 92.2216C118.702 92.2216 119.126 92.0871 119.467 91.8182C119.808 91.5455 120.066 91.1761 120.24 90.7102C120.418 90.2443 120.507 89.7197 120.507 89.1364C120.507 88.5606 120.42 88.0436 120.246 87.5852C120.075 87.1269 119.818 86.7652 119.473 86.5C119.132 86.2348 118.706 86.1023 118.195 86.1023C117.702 86.1023 117.286 86.2292 116.945 86.483C116.607 86.7367 116.352 87.0909 116.178 87.5455C116.003 88 115.916 88.5303 115.916 89.1364ZM124.126 96.7727V84.7727H125.786V86.1875H125.928C126.026 86.0057 126.168 85.7955 126.354 85.5568C126.539 85.3182 126.797 85.1098 127.126 84.9318C127.456 84.75 127.892 84.6591 128.433 84.6591C129.138 84.6591 129.767 84.8371 130.32 85.1932C130.873 85.5492 131.306 86.0625 131.621 86.733C131.939 87.4034 132.098 88.2102 132.098 89.1534C132.098 90.0966 131.941 90.9053 131.626 91.5795C131.312 92.25 130.88 92.767 130.331 93.1307C129.782 93.4905 129.155 93.6705 128.45 93.6705C127.92 93.6705 127.486 93.5814 127.149 93.4034C126.816 93.2254 126.554 93.017 126.365 92.7784C126.176 92.5398 126.03 92.3277 125.928 92.142H125.825V96.7727H124.126ZM125.791 89.1364C125.791 89.75 125.88 90.2879 126.058 90.75C126.236 91.2121 126.494 91.5739 126.831 91.8352C127.168 92.0928 127.581 92.2216 128.07 92.2216C128.577 92.2216 129.001 92.0871 129.342 91.8182C129.683 91.5455 129.941 91.1761 130.115 90.7102C130.293 90.2443 130.382 89.7197 130.382 89.1364C130.382 88.5606 130.295 88.0436 130.121 87.5852C129.95 87.1269 129.693 86.7652 129.348 86.5C129.007 86.2348 128.581 86.1023 128.07 86.1023C127.577 86.1023 127.161 86.2292 126.82 86.483C126.482 86.7367 126.227 87.0909 126.053 87.5455C125.878 88 125.791 88.5303 125.791 89.1364ZM135.7 81.8636V93.5H134.001V81.8636H135.7ZM139.06 96.7727C138.806 96.7727 138.575 96.7519 138.366 96.7102C138.158 96.6723 138.003 96.6307 137.901 96.5852L138.31 95.1932C138.62 95.2765 138.897 95.3125 139.139 95.3011C139.382 95.2898 139.596 95.1989 139.781 95.0284C139.971 94.858 140.137 94.5795 140.281 94.1932L140.491 93.6136L137.298 84.7727H139.116L141.327 91.5455H141.418L143.628 84.7727H145.452L141.855 94.6648C141.688 95.1193 141.476 95.5038 141.219 95.8182C140.961 96.1364 140.654 96.375 140.298 96.5341C139.942 96.6932 139.529 96.7727 139.06 96.7727ZM155.357 84.7727V86.1364H150.589V84.7727H155.357ZM151.868 82.6818H153.567V90.9375C153.567 91.267 153.616 91.5152 153.714 91.6818C153.813 91.8447 153.94 91.9564 154.095 92.017C154.254 92.0739 154.427 92.1023 154.612 92.1023C154.749 92.1023 154.868 92.0928 154.97 92.0739C155.072 92.0549 155.152 92.0398 155.209 92.0284L155.516 93.4318C155.417 93.4697 155.277 93.5076 155.095 93.5455C154.913 93.5871 154.686 93.6098 154.413 93.6136C153.966 93.6212 153.55 93.5417 153.163 93.375C152.777 93.2083 152.464 92.9508 152.226 92.6023C151.987 92.2538 151.868 91.8163 151.868 91.2898V82.6818ZM160.818 93.6761C160 93.6761 159.286 93.4886 158.676 93.1136C158.066 92.7386 157.593 92.214 157.256 91.5398C156.919 90.8655 156.75 90.0777 156.75 89.1761C156.75 88.2708 156.919 87.4792 157.256 86.8011C157.593 86.1231 158.066 85.5966 158.676 85.2216C159.286 84.8466 160 84.6591 160.818 84.6591C161.636 84.6591 162.35 84.8466 162.96 85.2216C163.57 85.5966 164.044 86.1231 164.381 86.8011C164.718 87.4792 164.886 88.2708 164.886 89.1761C164.886 90.0777 164.718 90.8655 164.381 91.5398C164.044 92.214 163.57 92.7386 162.96 93.1136C162.35 93.4886 161.636 93.6761 160.818 93.6761ZM160.824 92.25C161.354 92.25 161.794 92.1098 162.142 91.8295C162.491 91.5492 162.748 91.1761 162.915 90.7102C163.085 90.2443 163.17 89.7311 163.17 89.1705C163.17 88.6136 163.085 88.1023 162.915 87.6364C162.748 87.1667 162.491 86.7898 162.142 86.5057C161.794 86.2216 161.354 86.0795 160.824 86.0795C160.29 86.0795 159.847 86.2216 159.494 86.5057C159.146 86.7898 158.886 87.1667 158.716 87.6364C158.549 88.1023 158.466 88.6136 158.466 89.1705C158.466 89.7311 158.549 90.2443 158.716 90.7102C158.886 91.1761 159.146 91.5492 159.494 91.8295C159.847 92.1098 160.29 92.25 160.824 92.25ZM168.345 90.5398L168.334 88.4659H168.629L172.107 84.7727H174.141L170.175 88.9773H169.908L168.345 90.5398ZM166.783 93.5V81.8636H168.482V93.5H166.783ZM172.294 93.5L169.169 89.3523L170.339 88.1648L174.379 93.5H172.294ZM179.091 93.6761C178.231 93.6761 177.491 93.4924 176.869 93.125C176.252 92.7538 175.775 92.233 175.438 91.5625C175.104 90.8883 174.938 90.0985 174.938 89.1932C174.938 88.2992 175.104 87.5114 175.438 86.8295C175.775 86.1477 176.244 85.6155 176.847 85.233C177.453 84.8504 178.161 84.6591 178.972 84.6591C179.464 84.6591 179.941 84.7405 180.403 84.9034C180.866 85.0663 181.28 85.322 181.648 85.6705C182.015 86.0189 182.305 86.4716 182.517 87.0284C182.729 87.5814 182.835 88.2538 182.835 89.0455V89.6477H175.898V88.375H181.17C181.17 87.928 181.08 87.5322 180.898 87.1875C180.716 86.839 180.46 86.5644 180.131 86.3636C179.805 86.1629 179.422 86.0625 178.983 86.0625C178.506 86.0625 178.089 86.1799 177.733 86.4148C177.381 86.6458 177.108 86.9489 176.915 87.3239C176.725 87.6951 176.631 88.0985 176.631 88.5341V89.5284C176.631 90.1117 176.733 90.608 176.938 91.017C177.146 91.4261 177.436 91.7386 177.807 91.9545C178.178 92.1667 178.612 92.2727 179.108 92.2727C179.43 92.2727 179.723 92.2273 179.989 92.1364C180.254 92.0417 180.483 91.9015 180.676 91.7159C180.869 91.5303 181.017 91.3011 181.119 91.0284L182.727 91.3182C182.598 91.7917 182.367 92.2064 182.034 92.5625C181.705 92.9148 181.29 93.1894 180.79 93.3864C180.294 93.5795 179.727 93.6761 179.091 93.6761ZM186.419 88.3182V93.5H184.72V84.7727H186.351V86.1932H186.459C186.66 85.7311 186.974 85.3598 187.402 85.0795C187.834 84.7992 188.377 84.6591 189.033 84.6591C189.627 84.6591 190.148 84.7841 190.595 85.0341C191.042 85.2803 191.389 85.6477 191.635 86.1364C191.881 86.625 192.004 87.2292 192.004 87.9489V93.5H190.305V88.1534C190.305 87.5208 190.141 87.0265 189.811 86.6705C189.482 86.3106 189.029 86.1307 188.453 86.1307C188.059 86.1307 187.709 86.2159 187.402 86.3864C187.099 86.5568 186.858 86.8068 186.68 87.1364C186.506 87.4621 186.419 87.8561 186.419 88.3182ZM200.822 86.9034L199.283 87.1761C199.218 86.9792 199.116 86.7917 198.976 86.6136C198.839 86.4356 198.654 86.2898 198.419 86.1761C198.184 86.0625 197.891 86.0057 197.538 86.0057C197.057 86.0057 196.656 86.1136 196.334 86.3295C196.012 86.5417 195.851 86.8163 195.851 87.1534C195.851 87.4451 195.959 87.6799 196.175 87.858C196.391 88.036 196.739 88.1818 197.22 88.2955L198.607 88.6136C199.41 88.7992 200.008 89.0852 200.402 89.4716C200.796 89.858 200.993 90.3598 200.993 90.9773C200.993 91.5 200.841 91.9659 200.538 92.375C200.239 92.7803 199.821 93.0985 199.283 93.3295C198.749 93.5606 198.129 93.6761 197.425 93.6761C196.447 93.6761 195.65 93.4678 195.033 93.0511C194.415 92.6307 194.036 92.0341 193.896 91.2614L195.538 91.0114C195.641 91.4394 195.851 91.7633 196.169 91.983C196.487 92.1989 196.902 92.3068 197.413 92.3068C197.97 92.3068 198.415 92.1913 198.749 91.9602C199.082 91.7254 199.249 91.4394 199.249 91.1023C199.249 90.8295 199.146 90.6004 198.942 90.4148C198.741 90.2292 198.432 90.089 198.016 89.9943L196.538 89.6705C195.724 89.4848 195.122 89.1894 194.732 88.7841C194.345 88.3788 194.152 87.8655 194.152 87.2443C194.152 86.7292 194.296 86.2784 194.584 85.892C194.872 85.5057 195.269 85.2045 195.777 84.9886C196.285 84.7689 196.866 84.6591 197.521 84.6591C198.464 84.6591 199.207 84.8636 199.749 85.2727C200.29 85.678 200.648 86.2216 200.822 86.9034Z" fill="white"/>
</g>
<rect x="11" y="11" width="270" height="133" stroke="#0F7CFF" stroke-width="8"/>
<rect x="2" y="2" width="18" height="18" fill="white" stroke="#0F7CFF" stroke-width="4"/>
<rect x="2" y="68.5" width="18" height="18" fill="white" stroke="#0F7CFF" stroke-width="4"/>
<rect x="2" y="135" width="18" height="18" fill="white" stroke="#0F7CFF" stroke-width="4"/>
<rect x="272" y="2" width="18" height="18" fill="white" stroke="#0F7CFF" stroke-width="4"/>
<rect x="272" y="68.5" width="18" height="18" fill="white" stroke="#0F7CFF" stroke-width="4"/>
<rect x="272" y="135" width="18" height="18" fill="white" stroke="#0F7CFF" stroke-width="4"/>
<defs>
<filter id="filter0_d_3009_1322" x="72.9681" y="49.6582" width="20.4646" height="22.4766" filterUnits="userSpaceOnUse" color-interpolation-filters="sRGB">
<feFlood flood-opacity="0" result="BackgroundImageFix"/>
<feColorMatrix in="SourceAlpha" type="matrix" values="0 0 0 0 0 0 0 0 0 0 0 0 0 0 0 0 0 0 127 0" result="hardAlpha"/>
<feOffset dy="1"/>
<feGaussianBlur stdDeviation="1"/>
<feComposite in2="hardAlpha" operator="out"/>
<feColorMatrix type="matrix" values="0 0 0 0 0 0 0 0 0 0 0 0 0 0 0 0 0 0 0.25 0"/>
<feBlend mode="normal" in2="BackgroundImageFix" result="effect1_dropShadow_3009_1322"/>
<feBlend mode="normal" in="SourceGraphic" in2="effect1_dropShadow_3009_1322" result="shape"/>
</filter>
<filter id="filter1_d_3009_1322" x="82" y="61.5" width="154" height="60" filterUnits="userSpaceOnUse" color-interpolation-filters="sRGB">
<feFlood flood-opacity="0" result="BackgroundImageFix"/>
<feColorMatrix in="SourceAlpha" type="matrix" values="0 0 0 0 0 0 0 0 0 0 0 0 0 0 0 0 0 0 127 0" result="hardAlpha"/>
<feOffset dx="4" dy="4"/>
<feGaussianBlur stdDeviation="5"/>
<feComposite in2="hardAlpha" operator="out"/>
<feColorMatrix type="matrix" values="0 0 0 0 0.415686 0 0 0 0 0.466667 0 0 0 0 0.588235 0 0 0 0.16 0"/>
<feBlend mode="normal" in2="BackgroundImageFix" result="effect1_dropShadow_3009_1322"/>
<feBlend mode="normal" in="SourceGraphic" in2="effect1_dropShadow_3009_1322" result="shape"/>
</filter>
</defs>
</svg>
